<?xml version="1.0" standalone="no"?>
<!DOCTYPE svg PUBLIC "-//W3C//DTD SVG 20010904//EN"
 "http://www.w3.org/TR/2001/REC-SVG-20010904/DTD/svg10.dtd">
<svg version="1.0" xmlns="http://www.w3.org/2000/svg"
 width="176.000000pt" height="232.000000pt" viewBox="0 0 176.000000 232.000000"
 preserveAspectRatio="xMidYMid meet">

<g transform="translate(0.000000,232.000000) scale(0.100000,-0.100000)"
fill="#000000" stroke="none">
<path d="M400 2306 c-57 -13 -120 -41 -120 -54 0 -5 5 -13 12 -20 9 -9 8 -12
-6 -12 -9 0 -14 5 -11 10 3 6 2 10 -4 10 -5 0 -13 -4 -16 -10 -3 -5 -14 -10
-23 -11 -9 0 -39 -25 -67 -56 l-50 -56 0 -104 c0 -72 -4 -103 -12 -103 -21 0
-53 -52 -53 -87 0 -42 23 -89 51 -104 19 -10 59 -7 109 6 8 2 24 -2 34 -10 19
-14 18 -15 -9 -42 -58 -59 -59 -110 -4 -246 25 -61 41 -118 41 -142 0 -27 8
-51 24 -71 21 -29 22 -37 14 -85 -4 -30 -11 -62 -15 -71 -5 -12 3 -26 26 -46
32 -28 32 -29 20 -79 -9 -36 -10 -66 -2 -105 7 -42 6 -65 -7 -113 -9 -33 -21
-67 -27 -75 -5 -8 -10 -17 -11 -20 -10 -51 -49 -113 -96 -154 l-47 -40 30 -26
30 -25 -28 -37 c-16 -21 -37 -37 -48 -38 -12 0 -28 -12 -38 -29 -9 -15 -34
-44 -55 -63 -21 -19 -36 -40 -34 -46 8 -26 61 -42 141 -42 75 0 82 -2 97 -26
21 -31 64 -54 102 -54 16 0 35 -7 42 -15 14 -17 46 -20 55 -5 4 6 10 8 15 5
12 -7 50 31 50 50 0 11 12 15 44 15 35 0 48 5 60 22 9 12 16 28 16 35 0 14
-62 44 -70 34 -14 -17 -64 -31 -74 -21 -19 19 -29 10 -11 -10 18 -20 18 -21
-1 -14 -18 7 -18 7 -2 -13 10 -11 18 -28 18 -39 0 -17 -1 -16 -16 4 -8 12 -20
22 -26 22 -6 0 -4 -8 5 -18 28 -30 20 -49 -8 -22 -14 13 -27 21 -30 18 -3 -3
1 -11 10 -18 19 -16 19 -30 0 -30 -8 0 -15 5 -15 11 0 8 -12 10 -35 6 -39 -6
-93 23 -109 59 -8 19 -21 22 -102 27 -108 6 -140 18 -122 46 18 29 49 45 58
31 15 -24 31 1 24 36 -6 31 -4 34 18 34 16 0 37 13 57 35 17 19 36 35 41 35
22 0 20 -24 -4 -49 l-27 -28 28 -27 c47 -47 88 -59 205 -60 58 -1 104 2 102 6
-3 5 -49 8 -103 8 -91 0 -100 2 -144 30 -26 16 -47 37 -47 46 0 9 14 29 31 45
26 24 34 27 46 17 21 -17 38 8 64 91 11 36 25 72 32 81 7 8 26 57 42 108 19
61 34 92 44 92 34 0 209 -117 291 -195 54 -52 55 -52 87 -39 18 8 40 26 50 41
9 16 18 29 19 31 1 2 21 -7 43 -20 28 -16 50 -40 70 -79 53 -99 96 -114 136
-47 16 27 20 51 20 126 l0 93 42 35 c26 21 44 46 48 66 4 17 16 47 26 65 18
31 18 36 3 64 -9 19 -31 37 -60 49 -39 17 -44 23 -42 49 3 38 -17 61 -52 61
-44 0 -60 -10 -60 -37 0 -27 -24 -79 -50 -108 -16 -17 -17 -27 -9 -70 9 -49
12 -99 10 -162 -1 -38 -12 -41 -71 -17 -28 11 -40 22 -40 36 0 12 -9 22 -22
26 -32 8 -209 98 -236 119 l-23 19 26 74 c13 41 25 76 25 78 0 1 -9 -2 -19 -8
-26 -13 -26 -13 -28 11 -1 13 16 39 48 70 27 26 49 54 49 62 0 8 -13 32 -28
53 -41 57 -46 72 -47 149 -1 39 -5 91 -9 117 l-7 47 48 6 c26 3 60 9 75 11 14
3 29 0 33 -5 8 -14 69 -14 120 0 22 6 79 28 128 50 102 45 115 47 123 15 3
-13 27 -45 54 -71 50 -49 50 -51 21 -94 -8 -12 -12 -12 -25 -2 -18 15 -56 -1
-56 -24 0 -26 78 -74 112 -70 18 2 37 -2 45 -11 24 -24 40 -16 68 32 l28 47
-21 51 c-11 28 -23 61 -27 73 -3 11 -12 24 -20 27 -24 9 -17 26 10 26 17 0 29
8 37 25 14 32 54 34 63 4 9 -26 -5 -41 -39 -42 -32 -2 -36 -35 -6 -62 23 -21
64 -14 97 17 13 12 24 20 25 17 36 -58 37 -93 5 -137 -22 -29 -25 -30 -43 -17
-29 22 -44 18 -44 -13 0 -19 12 -39 39 -65 35 -33 45 -37 90 -37 28 0 51 4 51
10 0 5 10 9 21 7 17 -1 24 6 34 35 17 47 5 96 -56 232 -49 109 -70 127 -162
140 -27 4 -103 21 -170 37 -177 43 -182 44 -219 18 -30 -22 -79 -26 -143 -14
-11 2 -23 4 -27 4 -5 1 -8 8 -8 16 0 12 -7 14 -27 9 -16 -4 -35 -11 -44 -15
-9 -5 -43 -12 -75 -15 l-59 -7 30 26 c32 27 32 25 -20 42 -18 5 -20 27 -2 24
27 -3 37 2 37 21 0 13 7 20 20 20 26 0 25 4 -7 47 l-27 36 33 28 c28 23 33 33
28 57 -4 19 1 38 14 58 19 30 26 74 10 74 -5 0 -11 12 -14 28 -11 46 -22 55
-78 59 -37 2 -59 9 -75 24 -13 12 -21 25 -19 29 10 16 -57 50 -117 60 -77 12
-98 12 -168 -4z m239 -38 c14 -10 33 -32 43 -48 13 -21 26 -30 45 -30 28 -1
28 -1 -6 -16 -50 -21 -34 -25 32 -7 54 15 59 15 75 0 15 -16 13 -17 -41 -17
-56 0 -57 0 -73 -37 -9 -21 -19 -64 -22 -95 -4 -52 -3 -56 14 -52 25 6 60 -19
49 -35 -4 -8 -18 -11 -36 -7 -16 3 -40 0 -54 -6 -35 -16 -41 -5 -16 35 30 48
26 57 -8 20 -60 -66 -157 -60 -187 12 -8 20 -12 41 -8 47 9 15 148 78 172 78
23 0 40 -19 52 -57 7 -22 8 -24 9 -7 1 12 -8 32 -19 46 -13 18 -16 28 -9 35
12 12 6 13 -83 13 -60 1 -116 -22 -127 -52 -5 -13 -16 -30 -25 -37 -17 -14
-23 -46 -6 -36 6 4 10 -5 10 -20 0 -17 12 -39 34 -61 28 -28 41 -34 78 -34 23
0 50 4 58 9 10 7 18 4 28 -10 14 -21 21 -21 116 -3 34 6 48 28 37 55 -8 22 -6
26 25 35 31 10 34 9 34 -9 0 -10 -11 -28 -24 -38 -37 -29 -42 -56 -14 -86 21
-24 21 -26 3 -19 -62 23 -140 37 -175 31 -40 -7 -177 -82 -200 -110 -13 -15
-12 -17 9 -13 19 2 25 -4 36 -37 8 -21 12 -41 10 -43 -2 -2 -39 6 -82 18 -43
11 -86 22 -95 23 -28 2 -21 22 17 48 41 28 45 44 11 35 -21 -5 -25 -2 -31 24
-5 24 -12 30 -33 31 -15 0 -38 3 -52 5 -23 5 -83 -6 -125 -22 -16 -6 -16 -5
-1 23 19 38 42 44 134 36 69 -6 73 -5 79 16 5 19 7 18 24 -14 11 -19 19 -41
19 -49 0 -8 8 -22 17 -32 19 -18 19 -60 1 -82 -6 -7 -9 -15 -6 -17 10 -10 45
42 57 83 11 38 14 41 31 32 13 -7 20 -7 20 -1 0 13 -58 57 -87 65 -26 8 -49
34 -39 44 4 4 14 -2 22 -12 12 -17 14 -18 14 -3 0 9 -6 17 -12 17 -7 0 -1 10
14 21 15 11 25 26 22 33 -3 8 -16 2 -40 -21 -37 -35 -56 -36 -47 -4 4 15 -1
20 -19 23 -15 2 -22 9 -20 21 2 9 -2 17 -8 17 -11 0 -40 24 -40 34 0 2 7 6 15
8 11 2 7 12 -15 37 -34 39 -34 38 -17 74 7 17 20 27 33 27 12 0 36 3 53 6 27
6 33 3 38 -15 3 -11 9 -18 14 -15 5 3 9 1 9 -5 0 -6 6 -8 14 -5 23 9 40 -33
26 -65 -12 -26 -12 -26 9 -7 13 12 19 27 16 38 -3 10 -8 27 -11 38 -5 17 0 15
26 -10 17 -16 36 -30 43 -30 7 0 -1 12 -18 26 -16 14 -29 30 -28 34 1 4 -19
10 -45 13 -32 3 -52 12 -65 28 -18 22 -18 23 8 37 67 35 270 35 314 0z m181
-138 c11 -7 3 -10 -30 -10 -33 0 -41 3 -30 10 8 5 22 10 30 10 8 0 22 -5 30
-10z m-276 -20 c-28 -10 -62 -23 -74 -30 -17 -9 -21 -9 -15 0 11 18 86 50 115
49 18 0 10 -6 -26 -19z m318 -39 c-3 -34 -28 -58 -64 -66 -35 -8 -56 8 -60 45
-2 20 3 27 32 37 19 7 49 11 65 10 25 -2 30 -6 27 -26z m-121 -82 c10 -6 8 -9
-8 -9 -17 0 -23 6 -23 23 0 16 3 18 9 8 5 -7 15 -17 22 -22z m-113 -182 c2
-19 -1 -27 -12 -27 -11 0 -16 10 -16 31 0 38 24 35 28 -4z m73 11 c0 -10 2
-10 6 0 7 18 23 15 23 -6 0 -14 -8 -18 -35 -19 -31 -1 -34 1 -24 18 11 22 29
25 30 7z m79 -24 c0 -8 -4 -14 -10 -14 -5 0 -10 9 -10 21 0 11 5 17 10 14 6
-3 10 -13 10 -21z m-210 -25 c0 -23 -28 -25 -36 -4 -4 8 -3 22 0 31 5 13 9 14
21 4 8 -7 15 -21 15 -31z m-76 -3 c-6 -16 -24 -23 -24 -8 0 10 22 33 27 28 2
-2 1 -11 -3 -20z m156 -21 c0 -8 -4 -15 -10 -15 -5 0 -10 7 -10 15 0 8 5 15
10 15 6 0 10 -7 10 -15z m90 5 c0 -5 -7 -10 -15 -10 -8 0 -15 5 -15 10 0 6 7
10 15 10 8 0 15 -4 15 -10z m-50 -10 c0 -5 -7 -10 -15 -10 -8 0 -15 5 -15 10
0 6 7 10 15 10 8 0 15 -4 15 -10z m-122 -41 c-16 -10 -33 5 -23 21 5 8 11 8
21 -1 12 -10 12 -14 2 -20z m222 21 c0 -5 -12 -12 -27 -15 -16 -3 -48 -12 -73
-21 -41 -15 -150 -34 -150 -27 0 1 23 14 52 29 68 35 198 57 198 34z m566 -60
c60 -16 147 -38 194 -48 80 -16 85 -19 93 -47 5 -17 20 -52 34 -80 38 -74 62
-161 56 -201 -3 -19 -10 -34 -15 -34 -5 0 -6 15 -2 34 3 19 2 41 -2 48 -5 7
-7 23 -5 36 5 41 -38 13 -93 -60 -33 -44 -59 -48 -82 -13 -21 32 -11 44 17 19
20 -18 21 -18 54 21 39 45 45 87 20 135 -12 22 -12 30 -3 30 8 0 6 6 -5 17
-15 16 -18 15 -37 -10 -12 -15 -31 -32 -43 -38 -22 -10 -22 -10 -2 6 14 11 16
18 8 23 -6 4 -10 24 -9 45 1 33 -2 38 -24 43 -14 3 -41 10 -60 15 -19 6 -40 9
-45 8 -24 -7 -96 14 -105 30 -8 16 -15 16 -82 5 -76 -14 -266 -17 -307 -5 -21
6 -22 8 -8 20 18 15 56 16 155 6 61 -6 69 -5 87 15 24 27 53 24 211 -20z
m-953 -4 c43 -9 108 -16 143 -16 l64 0 -30 -42 c-32 -44 -39 -93 -21 -155 l9
-32 -36 24 c-20 13 -56 31 -80 39 -24 9 -74 30 -112 47 l-68 32 -4 54 c-3 59
6 77 37 70 11 -3 55 -12 98 -21z m477 9 c-7 -8 -18 -15 -24 -15 -6 0 -17 -9
-24 -21 -9 -14 -21 -19 -39 -17 -55 6 -34 48 29 58 71 12 72 12 58 -5z m-142
-19 c-4 -29 -53 -35 -61 -7 -6 25 -3 28 33 28 26 0 30 -4 28 -21z m332 -31
c63 0 139 3 167 7 51 7 54 6 68 -21 8 -16 36 -53 63 -82 33 -36 53 -70 63
-104 20 -72 19 -74 -16 -119 -11 -15 -18 -17 -26 -9 -9 9 -4 18 15 38 25 25
26 29 12 44 -11 12 -14 28 -10 49 5 27 3 32 -12 32 -14 0 -20 -8 -21 -31 -3
-38 -32 -99 -54 -112 -12 -8 -25 -4 -48 12 -17 12 -31 27 -31 32 0 13 34 11
47 -2 9 -9 18 2 38 41 l27 53 -41 39 c-23 23 -46 56 -52 79 -7 21 -14 39 -16
39 -7 0 -130 -42 -222 -77 -74 -27 -104 -33 -135 -29 -23 3 -58 7 -78 9 -40 4
-62 17 -40 24 21 8 13 21 -9 16 -12 -3 -55 5 -95 17 -74 24 -75 24 -55 43 16
17 24 18 50 9 17 -6 62 -14 100 -18 64 -6 70 -5 83 15 11 19 18 20 63 14 27
-5 102 -8 165 -8z m370 -45 c0 -35 -77 -39 -83 -5 -1 6 9 12 23 13 14 2 29 8
34 12 13 13 26 2 26 -20z m-740 -49 c0 -6 -4 -12 -9 -15 -15 -10 -22 -69 -9
-77 9 -6 13 -41 14 -111 1 -107 5 -119 68 -203 5 -7 2 -21 -9 -38 -13 -20 -25
-26 -48 -25 -18 0 -36 -1 -42 -2 -23 -6 -35 1 -35 20 0 11 -5 20 -10 20 -6 0
-8 -10 -5 -23 4 -16 -1 -29 -20 -47 l-27 -25 -22 28 c-29 36 -82 160 -90 208
-7 39 -59 119 -77 119 -6 0 3 -16 20 -35 17 -20 33 -48 37 -63 3 -15 13 -47
22 -72 16 -43 22 -224 7 -238 -3 -3 -24 8 -48 25 l-42 31 0 99 c-1 120 -7 147
-56 247 -22 43 -38 80 -37 80 2 1 12 8 22 16 18 14 19 14 8 -7 -15 -27 -15
-43 -2 -43 6 0 10 7 10 15 0 8 5 25 11 39 l11 24 62 -33 c34 -19 81 -41 106
-50 24 -9 48 -21 52 -28 11 -18 88 70 88 102 0 15 7 37 16 49 16 23 34 29 34
13z m29 -30 c-15 -5 -22 6 -14 19 6 9 10 9 16 -1 5 -8 4 -15 -2 -18z m788 -7
c-9 -9 -28 6 -21 18 4 6 10 6 17 -1 6 -6 8 -13 4 -17z m-1223 2 l26 -13 -25
-17 c-24 -16 -26 -16 -34 6 -8 20 -6 38 3 38 2 0 16 -6 30 -14z m1098 -91 c-2
-15 0 -25 7 -25 6 0 11 -7 11 -15 0 -21 -20 -19 -21 3 -1 9 -4 1 -8 -18 -4
-22 -12 -36 -24 -38 -16 -3 -16 -1 2 40 11 24 22 51 25 61 8 26 14 21 8 -8z
m294 -120 c-5 -16 -14 -33 -20 -37 -18 -12 -38 -9 -33 5 2 6 10 11 16 10 6 -2
11 10 11 27 0 16 6 41 12 56 l13 28 6 -30 c3 -16 1 -42 -5 -59z m-43 24 c-24
-46 -47 -69 -58 -58 -4 4 74 109 81 109 2 0 -9 -23 -23 -51z m-1114 -274 c26
-38 22 -65 -8 -65 -22 0 -31 19 -31 66 0 43 9 43 39 -1z m147 -61 c-1 -1 -16
1 -33 3 -40 6 -42 18 -5 37 26 14 27 13 33 -12 3 -15 5 -28 5 -28z m527 23
c16 -11 16 -14 -2 -50 -20 -39 -17 -49 5 -19 13 16 14 16 8 -3 -4 -11 -18 -30
-33 -42 -26 -23 -26 -23 -3 -23 16 0 22 -6 22 -22 0 -18 2 -20 9 -9 5 8 7 21
3 29 -4 12 -1 14 14 8 10 -5 40 -11 67 -13 26 -3 47 -9 47 -14 0 -8 -15 -13
-32 -10 -5 0 -8 -4 -8 -9 0 -6 6 -10 13 -10 7 0 5 -5 -5 -10 -9 -6 -14 -18
-11 -28 7 -29 -15 -72 -42 -82 -45 -17 -70 -110 -50 -182 11 -41 -1 -74 -36
-99 -36 -26 -45 -20 -82 53 l-23 46 40 8 41 7 -56 6 c-60 6 -91 24 -82 47 6
16 -8 19 -23 4 -7 -7 -25 -6 -54 3 -46 13 -55 23 -41 45 6 11 19 9 67 -6 32
-11 78 -23 100 -27 l42 -6 6 53 c5 42 -4 160 -16 205 -1 5 12 30 30 57 18 28
32 63 32 78 0 31 23 38 53 15z m61 -96 c9 -15 -23 -36 -36 -23 -5 5 -7 15 -4
21 9 13 33 14 40 2z m46 -31 c0 -5 -9 -10 -20 -10 -11 0 -20 5 -20 10 0 6 9
10 20 10 11 0 20 -4 20 -10z m-715 -714 c18 -13 18 -14 -3 -25 -16 -8 -27 -8
-47 1 l-26 12 23 13 c29 16 30 16 53 -1z m-12 -41 c20 5 20 5 4 -5 -19 -12
-71 2 -83 22 -4 5 8 2 25 -7 18 -9 42 -13 54 -10z"/>
<path d="M606 1335 c-7 -19 3 -73 15 -81 5 -3 9 8 9 25 0 16 -4 32 -10 36 -5
3 -7 12 -3 20 3 8 3 15 0 15 -3 0 -7 -7 -11 -15z"/>
<path d="M1231 774 c0 -11 3 -14 6 -6 3 7 2 16 -1 19 -3 4 -6 -2 -5 -13z"/>
</g>
</svg>
